<svg width="36" height="36" viewBox="0 0 36 36" fill="none" xmlns="http://www.w3.org/2000/svg">
<path d="M4.01103 26.5515V35.9009H10.5656V26.956C10.5656 26.0858 10.9109 25.2512 11.5255 24.6358C12.1401 24.0205 12.9737 23.6748 13.8429 23.6748H20.5635C23.6987 23.6738 26.7052 22.4262 28.9219 20.2064C31.1385 17.9865 32.3839 14.9761 32.3842 11.837C32.3842 8.69754 31.1386 5.6866 28.9216 3.46648C26.7045 1.24635 23.6974 -0.00113872 20.5617 -0.00161552L4.01103 -0.00161552V11.6851H10.5656V6.17526H20.12C21.6035 6.17526 23.0262 6.76518 24.0754 7.81528C25.1245 8.86538 25.7142 10.2897 25.7147 11.775C25.7147 13.2606 25.1252 14.6854 24.076 15.7359C23.0268 16.7864 21.6038 17.3765 20.12 17.3765H13.1739C11.9704 17.3759 10.7786 17.6129 9.66654 18.0738C8.55452 18.5346 7.54413 19.2105 6.69315 20.0626C5.84217 20.9147 5.16728 21.9263 4.70706 23.0398C4.24684 24.1532 4.01033 25.3465 4.01103 26.5515Z" fill="url(#paint0_radial_2222_358)"/>
<path d="M13.8411 23.6748C11.234 23.675 8.73388 24.712 6.89044 26.5577C5.04701 28.4034 4.01127 30.9066 4.01103 33.5168V35.9009H10.5656V26.956C10.5656 26.0861 10.9106 25.2518 11.5248 24.6365C12.1391 24.0211 12.9722 23.6752 13.8411 23.6748Z" fill="url(#paint1_linear_2222_358)"/>
<defs>
<radialGradient id="paint0_radial_2222_358" cx="0" cy="0" r="1" gradientUnits="userSpaceOnUse" gradientTransform="translate(32.4874 -4.98645) scale(36.0922 36.1362)">
<stop stop-color="#A995FF"/>
<stop offset="1" stop-color="#6652F5"/>
</radialGradient>
<linearGradient id="paint1_linear_2222_358" x1="8.92605" y1="34.1326" x2="8.92605" y2="20.3944" gradientUnits="userSpaceOnUse">
<stop stop-color="#6D4BFD"/>
<stop offset="1" stop-color="#1C0554"/>
</linearGradient>
</defs>
</svg>
